adjusted_angles_states
version=1
nRows=9
nColumns=49
inDegrees=yes

# SIMM Motion File Header:
name adjusted_angles_states
datacolumns 49
datarows 9
otherdata 1
range 0.69192107 0.69497167
endheader
time	/jointset/bb/crank_angle/value	/jointset/bb/crank_angle/speed	/jointset/spindle/pedal_angle_r/value	/jointset/spindle/pedal_angle_r/speed	/jointset/ground_pelvis/pelvis_tilt/value	/jointset/ground_pelvis/pelvis_tilt/speed	/jointset/ground_pelvis/pelvis_list/value	/jointset/ground_pelvis/pelvis_list/speed	/jointset/ground_pelvis/pelvis_rotation/value	/jointset/ground_pelvis/pelvis_rotation/speed	/jointset/ground_pelvis/pelvis_tx/value	/jointset/ground_pelvis/pelvis_tx/speed	/jointset/ground_pelvis/pelvis_ty/value	/jointset/ground_pelvis/pelvis_ty/speed	/jointset/ground_pelvis/pelvis_tz/value	/jointset/ground_pelvis/pelvis_tz/speed	/jointset/hip_r/hip_angle_r/value	/jointset/hip_r/hip_angle_r/speed	/jointset/hip_r/hip_adduction_r/value	/jointset/hip_r/hip_adduction_r/speed	/jointset/hip_r/hip_rotation_r/value	/jointset/hip_r/hip_rotation_r/speed	/jointset/knee_r/knee_angle_r/value	/jointset/knee_r/knee_angle_r/speed	/jointset/knee_r/tib_tx_r/value	/jointset/knee_r/tib_tx_r/speed	/jointset/knee_r/tib_ty_r/value	/jointset/knee_r/tib_ty_r/speed	/jointset/tib_pat_r/pat_angle_r/value	/jointset/tib_pat_r/pat_angle_r/speed	/jointset/tib_pat_r/pat_tx_r/value	/jointset/tib_pat_r/pat_tx_r/speed	/jointset/tib_pat_r/pat_ty_r/value	/jointset/tib_pat_r/pat_ty_r/speed	/jointset/ankle_r/ankle_angle_r/value	/jointset/ankle_r/ankle_angle_r/speed	/jointset/subtalar_r/subtalar_angle_r/value	/jointset/subtalar_r/subtalar_angle_r/speed	/jointset/mtp_r/mtp_angle_r/value	/jointset/mtp_r/mtp_angle_r/speed	/forceset/bifemlh_r/activation	/forceset/bifemlh_r/fiber_length	/forceset/bifemsh_r/activation	/forceset/bifemsh_r/fiber_length	/forceset/glut_max2_r/activation	/forceset/glut_max2_r/fiber_length	/forceset/vas_int_r/activation	/forceset/vas_int_r/fiber_length
      0.69192107	   -572.73557546	  -1082.95544702	    570.80992490	    616.94607742	      0.00000000	     -0.00000000	     -0.00000000	     -0.00000000	     -0.00000000	     -0.00000000	     -0.14965250	     -0.00000000	     -0.06584239	     -0.00000000	      0.00000000	      0.00000000	     44.86314061	    215.82828972	      4.37955181	     -1.01955777	      0.11337154	    -51.68690736	    -68.02935394	   -668.30515905	      0.00513660	      0.00911714	     -0.47849486	     -0.21653200	     17.50661854	      5.29049853	      0.04036513	     -0.21003069	     -0.02264955	      0.01973970	     21.67833939	    -11.78421282	      0.00000000	      0.00000000	     -0.00000000	      0.00000000	      0.03302916	      0.11803990	      0.02709324	      0.16200776	      0.02000288	      0.13354274	      0.02018513	      0.13445689
      0.69229361	   -573.13855989	  -1080.48716767	    571.03979873	    617.14372239	      0.00000000	     -0.00000000	     -0.00000000	     -0.00000000	     -0.00000000	     -0.00000000	     -0.14965250	     -0.00000000	     -0.06584239	     -0.00000000	      0.00000000	      0.00000000	     44.94361709	    216.21237685	      4.37916571	     -1.05321151	      0.09414528	    -51.53032172	    -68.27808007	   -666.99067657	      0.00513979	      0.00799582	     -0.47857551	     -0.21642570	     17.50855165	      5.08833938	      0.04028689	     -0.21002886	     -0.02264226	      0.01941583	     21.67413213	    -10.80411537	      0.00000000	      0.00000000	     -0.00000000	      0.00000000	      0.03309585	      0.11798440	      0.02708337	      0.16187554	      0.02000287	      0.13360047	      0.02018422	      0.13464921
      0.69266615	   -573.54062567	  -1078.03364582	    571.26974706	    617.35172294	      0.00000000	     -0.00000000	     -0.00000000	     -0.00000000	     -0.00000000	     -0.00000000	     -0.14965250	     -0.00000000	     -0.06584239	     -0.00000000	      0.00000000	      0.00000000	     45.02423522	    216.59073083	      4.37876711	     -1.08663340	      0.07497722	    -51.37495343	    -68.52631351	   -665.66634176	      0.00514256	      0.00688105	     -0.47865612	     -0.21631088	     17.51041039	      4.89127685	      0.04020864	     -0.21002396	     -0.02263509	      0.01908515	     21.67028839	     -9.83267460	      0.00000000	      0.00000000	     -0.00000000	      0.00000000	      0.03316255	      0.11792962	      0.02707339	      0.16174387	      0.02000286	      0.13365828	      0.02018331	      0.13479708
      0.69303869	   -573.94177773	  -1075.57247160	    571.49977339	    617.55709844	      0.00000000	     -0.00000000	     -0.00000000	     -0.00000000	     -0.00000000	     -0.00000000	     -0.14965250	     -0.00000000	     -0.06584239	     -0.00000000	      0.00000000	      0.00000000	     45.10499276	    216.95902633	      4.37835611	     -1.11979888	      0.05586693	    -51.21973543	    -68.77405030	   -664.31871082	      0.00514492	      0.00577275	     -0.47873668	     -0.21618319	     17.51219664	      4.69917673	      0.04013040	     -0.21001169	     -0.02262804	      0.01874739	     21.66680498	     -8.86961506	      0.00000000	      0.00000000	     -0.00000000	      0.00000000	      0.03322925	      0.11787554	      0.02706331	      0.16161275	      0.02000284	      0.13371615	      0.02018241	      0.13498330
      0.69343758	   -574.37028913	  -1072.95264013	    571.74615596	    617.78758953	      0.00000000	     -0.00000000	     -0.00000000	     -0.00000000	     -0.00000000	     -0.00000000	     -0.14965250	     -0.00000000	     -0.06584239	     -0.00000000	      0.00000000	      0.00000000	     45.19161304	    217.34720263	      4.37790240	     -1.15504727	      0.03546885	    -51.05484572	    -69.03875043	   -662.86512863	      0.00514698	      0.00459350	     -0.47882288	     -0.21603717	     17.51403099	      4.49906402	      0.04004663	     -0.20999511	     -0.02262064	      0.01837846	     21.66347109	     -7.84788392	      0.00000000	      0.00000000	     -0.00000000	      0.00000000	      0.03330068	      0.11781843	      0.02705240	      0.16147298	      0.02000283	      0.13377820	      0.02018145	      0.13514527
      0.69383647	   -574.79775626	  -1070.32419432	    571.99263125	    618.01471620	      0.00000000	     -0.00000000	     -0.00000000	     -0.00000000	     -0.00000000	     -0.00000000	     -0.14965250	     -0.00000000	     -0.06584239	     -0.00000000	      0.00000000	      0.00000000	     45.27838643	    217.72421905	      4.37743468	     -1.18999508	      0.01513639	    -50.89013856	    -69.30286712	   -661.38582221	      0.00514858	      0.00342194	     -0.47890903	     -0.21587675	     17.51578665	      4.30457208	      0.03996287	     -0.20997022	     -0.02261338	      0.01800175	     21.66054284	     -6.83566054	      0.00000000	      0.00000000	     -0.00000000	      0.00000000	      0.03337212	      0.11776213	      0.02704138	      0.16133384	      0.02000281	      0.13384033	      0.02018049	      0.13534535
      0.69423536	   -575.22417559	  -1067.71484653	    572.23919778	    618.25424244	      0.00000000	     -0.00000000	     -0.00000000	     -0.00000000	     -0.00000000	     -0.00000000	     -0.14965250	     -0.00000000	     -0.06584239	     -0.00000000	      0.00000000	      0.00000000	     45.36530850	    218.09587114	      4.37695308	     -1.22466947	     -0.00513051	    -50.72693225	    -69.56639015	   -659.89835514	      0.00514972	      0.00225827	     -0.47899510	     -0.21570767	     17.51746585	      4.11577561	      0.03987912	     -0.20994253	     -0.02260628	      0.01761789	     21.65801645	     -5.83307732	      0.00000000	      0.00000000	     -0.00000000	      0.00000000	      0.03344356	      0.11770664	      0.02703024	      0.16119536	      0.02000280	      0.13390252	      0.02017954	      0.13550919
      0.69463426	   -575.64955485	  -1065.09997041	    572.48586056	    618.49177369	      0.00000000	     -0.00000000	     -0.00000000	     -0.00000000	     -0.00000000	     -0.00000000	     -0.14965250	     -0.00000000	     -0.06584239	     -0.00000000	      0.00000000	      0.00000000	     45.45237715	    218.45733099	      4.37645771	     -1.25904077	     -0.02533248	    -50.56405463	    -69.82931640	   -658.38794198	      0.00515039	      0.00110252	     -0.47908111	     -0.21552514	     17.51907086	      3.93253133	      0.03979539	     -0.20990725	     -0.02259933	      0.01722663	     21.65588809	     -4.83990013	      0.00000000	      0.00000000	     -0.00000000	      0.00000000	      0.03351501	      0.11765196	      0.02701898	      0.16105753	      0.02000278	      0.13396479	      0.02017859	      0.13567088
      0.69497167	   -576.00856096	  -1062.88422649	    572.69458214	    618.69121073	      0.00000000	     -0.00000000	     -0.00000000	     -0.00000000	     -0.00000000	     -0.00000000	     -0.14965250	     -0.00000000	     -0.06584239	     -0.00000000	      0.00000000	      0.00000000	     45.52613822	    218.75531642	      4.37602802	     -1.28787581	     -0.04237030	    -50.42655735	    -70.05124780	   -657.09298242	      0.00515059	      0.00013117	     -0.47915380	     -0.21536045	     17.52037222	      3.78183701	      0.03972457	     -0.20987161	     -0.02259357	      0.01689004	     21.65439572	     -4.00711333	      0.00000000	      0.00000000	     -0.00000000	      0.00000000	      0.03357545	      0.11760634	      0.02700937	      0.16094145	      0.02000277	      0.13401752	      0.02017780	      0.13584766
